<svg width="93" height="166" viewBox="0 0 93 166" fill="none" xmlns="http://www.w3.org/2000/svg">
<g clip-path="url(#clip0_1376_1399)">
<path fill-rule="evenodd" clip-rule="evenodd" d="M46.3051 11.9258C60.6905 26.3738 70.2657 46.6126 71.744 69.4428C74.7576 116.204 42.6319 156.097 -0.0126953 158.551L0.385315 164.766C44.3264 162.231 77.4186 121.135 74.3141 72.9516C72.7334 48.4817 62.1234 26.9013 46.2937 11.9258H46.3051Z" fill="#ED923A" fill-opacity="0.3"/>
<path fill-rule="evenodd" clip-rule="evenodd" d="M27.3776 159.915C35.6905 162.632 40.6714 154.892 47.7106 153.666C54.7498 152.439 56.9559 156.67 61.6525 158.206C51.0312 166.749 39.5797 167.242 27.389 159.915H27.3776Z" fill="#ED923A" fill-opacity="0.3"/>
<path fill-rule="evenodd" clip-rule="evenodd" d="M42.3572 148.747C50.9543 149.573 54.4114 140.835 61.0526 138.049C67.6938 135.262 70.605 138.943 75.4494 139.413C66.6248 150.203 55.5599 153.242 42.3572 148.747Z" fill="#ED923A" fill-opacity="0.3"/>
<path fill-rule="evenodd" clip-rule="evenodd" d="M58.2704 131.58C65.9578 130.926 67.8455 122.613 73.3268 119.081C78.8194 115.549 81.8671 118.336 86.2111 117.969C79.877 128.965 70.5179 133.449 58.259 131.58H58.2704Z" fill="#ED923A" fill-opacity="0.3"/>
<path fill-rule="evenodd" clip-rule="evenodd" d="M67.0279 114.966C74.0444 112.684 74.2832 104.508 78.7296 100.013C83.176 95.5185 86.5193 97.4679 90.4768 96.1836C86.5876 107.834 78.7182 114.049 67.0165 114.955L67.0279 114.966Z" fill="#ED923A" fill-opacity="0.3"/>
<path fill-rule="evenodd" clip-rule="evenodd" d="M72.5527 97.9273C79.0802 94.3267 78.0113 86.2083 81.6616 80.9221C85.312 75.636 88.9055 76.9202 92.59 74.8906C90.6341 87.1485 83.9019 94.7854 72.5527 97.9273Z" fill="#ED923A" fill-opacity="0.3"/>
<path fill-rule="evenodd" clip-rule="evenodd" d="M74.177 79.3478C79.7947 74.2681 77.145 66.5625 79.6355 60.508C82.1259 54.4536 85.8786 54.855 89.0514 51.9883C89.5859 64.4641 84.5709 73.5686 74.177 79.3478Z" fill="#ED923A" fill-opacity="0.3"/>
<path fill-rule="evenodd" clip-rule="evenodd" d="M72.0501 58.5845C75.7118 52.5071 71.5497 46.4986 72.2661 40.4671C72.9712 34.4241 76.3259 33.7017 78.3956 30.2617C81.864 41.0634 79.692 50.5119 72.0501 58.5845Z" fill="#ED923A" fill-opacity="0.3"/>
<path fill-rule="evenodd" clip-rule="evenodd" d="M67.9243 40.9807C69.4822 34.6281 64.4103 30.7524 63.4665 25.3401C62.5226 19.9278 65.1836 18.2766 66.0593 14.6875C71.768 22.9091 72.3366 31.6812 67.9129 40.9692L67.9243 40.9807Z" fill="#ED923A" fill-opacity="0.3"/>
<path fill-rule="evenodd" clip-rule="evenodd" d="M59.2139 26.6246C59.7598 21.7971 55.7114 19.5267 54.5287 15.6739C53.346 11.8211 55.1314 10.3075 55.4384 7.58984C60.3511 12.9792 61.5906 19.3318 59.2253 26.6246H59.2139Z" fill="#ED923A" fill-opacity="0.3"/>
<path fill-rule="evenodd" clip-rule="evenodd" d="M50.5861 14.9433C49.7559 10.7464 45.8099 10.1387 43.8198 7.30644C41.8184 4.47416 42.8873 2.65095 42.4211 0.277344C47.9023 3.20135 50.5975 8.12057 50.5861 14.9433Z" fill="#ED923A" fill-opacity="0.3"/>
<path fill-rule="evenodd" clip-rule="evenodd" d="M15.8521 154.01C21.0036 147.899 17.5238 140.663 19.4229 134.15C21.322 127.625 25.143 127.35 28.0542 123.91C29.8851 136.306 25.7571 146.339 15.8521 154.022V154.01Z" fill="#ED923A" fill-opacity="0.3"/>
<path fill-rule="evenodd" clip-rule="evenodd" d="M30.8203 146.705C35.8353 140.639 32.2759 133.403 34.0499 126.913C35.8239 120.423 39.6107 120.159 42.4423 116.742C44.4552 129.103 40.5091 139.091 30.8203 146.705Z" fill="#ED923A" fill-opacity="0.3"/>
<path fill-rule="evenodd" clip-rule="evenodd" d="M47.5351 132.886C50.7761 126.293 46.0909 120.64 46.3411 114.425C46.5913 108.199 49.9346 107.086 51.7655 103.371C56.1209 113.978 54.6426 123.828 47.5351 132.898V132.886Z" fill="#ED923A" fill-opacity="0.3"/>
<path fill-rule="evenodd" clip-rule="evenodd" d="M60.2811 115.686C62.0551 108.933 56.7103 104.678 55.7892 98.8762C54.8794 93.0741 57.7451 91.3655 58.7572 87.5586C64.7161 96.4568 65.171 105.859 60.2811 115.686Z" fill="#ED923A" fill-opacity="0.3"/>
<path fill-rule="evenodd" clip-rule="evenodd" d="M67.6502 94.6682C68.3439 88.4532 63.1128 85.5292 61.589 80.5641C60.0538 75.599 62.3509 73.6612 62.7376 70.1523C69.0831 77.0782 70.6865 85.2769 67.6502 94.6682Z" fill="#ED923A" fill-opacity="0.3"/>
<path fill-rule="evenodd" clip-rule="evenodd" d="M68.9277 72.8821C68.2227 67.2979 63.1053 66.0594 60.74 62.1264C58.3746 58.1933 59.9439 55.9229 59.5573 52.7695C66.4828 57.2071 69.5759 63.9381 68.9277 72.8821Z" fill="#ED923A" fill-opacity="0.3"/>
<path fill-rule="evenodd" clip-rule="evenodd" d="M65.7971 52.3913C64.0344 47.7817 59.4402 47.9996 56.6086 45.2247C53.7883 42.4382 54.6412 40.099 53.6519 37.4961C60.4523 39.5716 64.4779 44.5711 65.7971 52.3913Z" fill="#ED923A" fill-opacity="0.3"/>
<path fill-rule="evenodd" clip-rule="evenodd" d="M59.5158 36.7071C57.3438 33.0149 53.4091 33.9895 50.5661 32.0631C47.7345 30.1367 48.1439 27.958 46.9157 25.8711C53.0679 26.5018 57.2528 30.1482 59.5158 36.7071Z" fill="#ED923A" fill-opacity="0.3"/>
<path fill-rule="evenodd" clip-rule="evenodd" d="M51.6057 22.7368C49.5473 19.9389 46.4314 21.1085 43.9865 19.8128C41.5415 18.5171 41.6894 16.7053 40.5294 15.1229C45.5672 15.0427 49.2517 17.6112 51.6057 22.7253V22.7368Z" fill="#ED923A" fill-opacity="0.3"/>
<path fill-rule="evenodd" clip-rule="evenodd" d="M42.1994 9.78085C40.2321 6.44404 36.684 7.32698 34.1254 5.58404C31.5667 3.85256 31.9306 1.88029 30.8275 -0.0117188C36.3884 0.55015 40.1638 3.85256 42.1994 9.76939V9.78085Z" fill="#ED923A" fill-opacity="0.3"/>
</g>
<defs>
<clipPath id="clip0_1376_1399">
<rect width="92.59" height="165.052" fill="white" transform="matrix(-1 0 0 1 92.59 0)"/>
</clipPath>
</defs>
</svg>
