<svg width="58" height="80" viewBox="0 0 58 80" fill="none" xmlns="http://www.w3.org/2000/svg">
<g clip-path="url(#clip0_1376_1747)">
<path d="M64.4981 35.5295H56.7204V31.6018C56.7204 29.0182 54.6191 26.8682 52.0364 26.809C50.5313 26.7745 50.1543 25.3398 47.7307 25.3398H44.1814C42.5516 25.3398 41.0487 25.8897 39.8454 26.8123C38.2347 26.0488 38.0919 26.3053 30.8224 24.6137V22.7702C32.8439 21.2665 34.2818 19.5105 34.6488 16.6876C35.8183 16.2425 36.6518 15.1097 36.6518 13.7858C36.6518 12.0115 36.6518 8.51886 36.6518 6.86284C36.6518 4.05323 34.3666 1.71496 31.558 1.65059C30.9538 1.63669 30.3802 1.43609 29.8991 1.0702C27.7929 -0.531449 25.795 0.192982 22.7962 0.011132C18.4773 0.011132 14.9637 3.52471 14.9637 7.84364V13.7858C14.9637 15.1097 15.797 16.2425 16.9667 16.6876C17.3357 19.5255 18.7877 21.2783 20.7931 22.77V24.6135L13.1158 26.3037C13.0893 26.3097 13.063 26.3164 13.0369 26.324C9.35308 27.4087 6.78031 30.8483 6.78031 34.6884V35.5293H5.98136C2.6876 35.5293 0.0078125 38.209 0.0078125 41.5029V62.0572C0.0078125 65.3227 2.64198 67.9831 5.897 68.0287V77.2954C5.897 78.7868 7.11042 80.0002 8.60178 80.0002H11.2856C12.777 80.0002 13.9904 78.7868 13.9904 77.2954V68.0309H27.8539V76.2459C27.8539 78.3161 29.5382 80.0002 31.6084 80.0002H62.1545C64.2247 80.0002 65.9088 78.3161 65.9088 76.2459V67.8628C68.541 67.2284 70.4715 64.8634 70.4715 62.0574V53.7398C70.4715 53.0927 69.947 52.5681 69.2998 52.5681C68.6525 52.5681 68.128 53.0927 68.128 53.7398V62.0574C68.128 63.5594 67.2182 64.8531 65.9088 65.4038V59.6049C65.9088 55.7647 63.3361 52.3251 59.6522 51.2404C59.6261 51.2328 59.5997 51.2261 59.5731 51.2201L51.8961 49.5301V46.6145C54.7552 44.8034 56.7117 41.5248 56.719 37.8729H64.4978C66.4995 37.8729 68.1279 39.5013 68.1279 41.503V49.0531C68.1279 49.7002 68.6523 50.2248 69.2996 50.2248C69.9469 50.2248 70.4713 49.7002 70.4713 49.0531V41.503C70.4716 38.2091 67.792 35.5295 64.4981 35.5295ZM17.3071 7.8438C17.3071 4.81703 19.7694 2.35471 22.7962 2.35471C26.1989 2.49001 27.2509 2.0007 28.4807 2.93573C29.3575 3.60251 30.403 3.96824 31.5042 3.99355C33.0504 4.02901 34.3085 5.31618 34.3085 6.863V9.8393C33.8881 9.56871 33.4365 9.21642 33.0337 8.76976C31.8014 7.40339 29.8354 7.07343 28.2523 7.96769C25.8327 9.33453 21.3058 11.318 17.3073 9.88351L17.3071 7.8438ZM19.2383 15.6922C19.2247 15.055 18.7043 14.5457 18.0669 14.5457C17.648 14.5457 17.3071 14.2048 17.3071 13.7859V12.3286C19.8565 13.007 23.9448 13.0921 29.4048 10.008C30.0251 9.65761 30.8017 9.79368 31.2933 10.3391C32.3086 11.4649 33.5183 12.1418 34.3084 12.4988V13.7858C34.3084 14.2046 33.9675 14.5455 33.5486 14.5455C32.9112 14.5455 32.3908 15.055 32.3772 15.6921C32.3229 18.2214 31.0366 19.8212 29.0072 21.186C29.0007 21.1902 28.9943 21.1944 28.9879 21.199C26.8486 22.6302 24.8447 22.6824 22.627 21.1985C22.6211 21.1944 22.615 21.1905 22.6089 21.1865C20.602 19.8371 19.2929 18.2417 19.2383 15.6922ZM28.479 24.1128V25.5373V25.5431V25.5554C28.479 27.0283 27.2807 28.2268 25.8077 28.2268C24.3346 28.2268 23.1363 27.0285 23.1363 25.5554V25.5432C23.1363 25.5412 23.1363 25.539 23.1363 25.537V24.1125C24.9194 24.8155 26.6954 24.8158 28.479 24.1128ZM11.6471 77.2954C11.6471 77.4946 11.485 77.6568 11.2858 77.6568H8.60193C8.40259 77.6568 8.24058 77.4946 8.24058 77.2954V68.0309H11.6473L11.6471 77.2954ZM5.98136 65.6875C3.97961 65.6875 2.35124 64.059 2.35124 62.0574V41.503C2.35124 39.5013 3.97961 37.8729 5.98136 37.8729H12.615C13.2621 37.8729 13.7867 37.3483 13.7867 36.7012C13.7867 36.0541 13.2621 35.5295 12.615 35.5295H9.12373V34.6885C9.12373 31.8934 10.9877 29.3888 13.6614 28.5834L20.9971 26.9685C21.6089 29.0477 23.5333 30.5703 25.8078 30.5703C28.0824 30.5703 30.0068 29.0476 30.6186 26.9685C38.6896 28.7621 37.7262 28.5056 38.1586 28.652C37.452 29.7598 37.0405 31.0734 37.0405 32.4823L37.0438 35.5296H17.3018C16.6547 35.5296 16.1301 36.0543 16.1301 36.7014C16.1301 37.3485 16.6547 37.8731 17.3018 37.8731H37.0463C37.0553 41.526 39.0119 44.8007 41.8668 46.6114V49.5302L34.1898 51.2203C34.1632 51.2262 34.1368 51.2329 34.1107 51.2406C30.4269 52.3253 27.8541 55.7648 27.8541 59.6051V65.6878H5.98136V65.6875ZM63.5656 76.2459C63.5656 77.0239 62.9325 77.6568 62.1547 77.6568H31.6086C30.8306 77.6568 30.1975 77.0239 30.1975 76.2459V71.6093C30.1975 67.434 33.5946 64.0371 37.7699 64.0371H55.9933C60.1688 64.0371 63.5657 67.434 63.5657 71.6093V76.2459H63.5656ZM63.5656 59.6049V65.2177C61.7452 63.0646 59.0268 61.6937 55.9932 61.6937H37.7699C34.7363 61.6937 32.0179 63.0644 30.1975 65.2177V59.6049C30.1975 56.8098 32.0615 54.305 34.7352 53.4997L43.1659 51.6437H50.597L59.0277 53.4997C61.7018 54.305 63.5656 56.8098 63.5656 59.6049ZM49.553 49.3002H44.2104V47.6908C45.065 47.9521 45.9622 48.0957 46.8852 48.0957H46.9071C47.8201 48.0935 48.7076 47.9509 49.5531 47.693V49.3002H49.553ZM54.377 37.8306C54.387 41.9328 51.0693 45.7423 46.9013 45.7523C46.8957 45.7523 46.8902 45.7523 46.8847 45.7523C42.7478 45.7523 39.3995 41.9902 39.3897 37.8682L39.3838 32.481C39.3838 29.8356 41.536 27.6834 44.1812 27.6834H47.7306C49.2343 27.6834 49.6356 29.0982 51.9825 29.1519C53.3028 29.1822 54.3768 30.2813 54.3768 31.6019L54.377 37.8306Z" fill="url(#paint0_linear_1376_1747)"/>
<path d="M76.2319 0.0390625H56.311C54.2377 0.0390625 52.5508 1.72586 52.5508 3.79932V14.0284C52.5508 16.1017 54.2377 17.7886 56.311 17.7886H63.3844C64.1434 17.7886 64.761 18.4062 64.761 19.1652V22.7204C64.761 24.5271 67.0553 25.3038 68.1517 23.8648L72.3666 18.3312C72.6252 17.9916 73.0345 17.7888 73.4615 17.7888H76.2317C78.305 17.7888 79.992 16.102 79.992 14.0285V3.79948C79.9921 1.72602 78.3052 0.0390625 76.2319 0.0390625ZM77.6487 14.0284C77.6487 14.8095 77.0132 15.4452 76.2319 15.4452H73.4616C72.3079 15.4452 71.2016 15.9933 70.5025 16.9111L67.1045 21.3722V19.165C67.1045 17.1139 65.4357 15.4451 63.3846 15.4451H56.3112C55.5299 15.4451 54.8944 14.8095 54.8944 14.0282V3.79948C54.8944 3.01818 55.5299 2.38264 56.3112 2.38264H76.232C77.0133 2.38264 77.6489 3.01818 77.6489 3.79948L77.6487 14.0284Z" fill="url(#paint1_linear_1376_1747)"/>
</g>
<defs>
<linearGradient id="paint0_linear_1376_1747" x1="70.4715" y1="40.0001" x2="0.0078125" y2="40.0001" gradientUnits="userSpaceOnUse">
<stop stop-color="#755797"/>
<stop offset="1" stop-color="#9B4DF0"/>
</linearGradient>
<linearGradient id="paint1_linear_1376_1747" x1="79.992" y1="12.3259" x2="52.5508" y2="12.3259" gradientUnits="userSpaceOnUse">
<stop stop-color="#755797"/>
<stop offset="1" stop-color="#9B4DF0"/>
</linearGradient>
<clipPath id="clip0_1376_1747">
<rect width="80" height="80" fill="white"/>
</clipPath>
</defs>
</svg>
