<svg width="80" height="80" viewBox="0 0 80 80" fill="none" xmlns="http://www.w3.org/2000/svg">
<path d="M20.8032 48.3993C19.1809 48.3993 17.5951 47.9182 16.2463 47.0169C14.8975 46.1155 13.8462 44.8344 13.2256 43.3356C12.6049 41.8367 12.4427 40.1875 12.7594 38.5965C13.0761 37.0054 13.8576 35.544 15.0049 34.3972C16.1522 33.2503 17.6139 32.4694 19.2051 32.1533C20.7962 31.8372 22.4454 32.0001 23.944 32.6213C25.4426 33.2426 26.7233 34.2943 27.6241 35.6435C28.5249 36.9926 29.0054 38.5786 29.0048 40.2009C29.0022 42.375 28.1372 44.4593 26.5996 45.9964C25.0619 47.5334 22.9773 48.3976 20.8032 48.3993ZM20.8032 35.1993C19.8139 35.1993 18.8469 35.4926 18.0244 36.0422C17.2019 36.5918 16.5608 37.3729 16.1823 38.2869C15.8037 39.2008 15.7047 40.2064 15.8977 41.1767C16.0907 42.1469 16.567 43.0381 17.2665 43.7376C17.966 44.437 18.8572 44.9134 19.8274 45.1064C20.7976 45.2994 21.8033 45.2003 22.7172 44.8218C23.6311 44.4432 24.4123 43.8021 24.9618 42.9796C25.5114 42.1571 25.8048 41.1901 25.8048 40.2009C25.8039 38.8747 25.2767 37.603 24.3389 36.6652C23.4011 35.7274 22.1294 35.2001 20.8032 35.1993Z" fill="url(#paint0_linear_1376_1731)"/>
<path d="M30.3977 67.2031C29.9733 67.2031 29.5663 67.0346 29.2663 66.7345C28.9662 66.4344 28.7977 66.0275 28.7977 65.6031V62.4031C28.7977 60.2814 27.9548 58.2466 26.4545 56.7463C24.9542 55.246 22.9194 54.4031 20.7977 54.4031C18.6759 54.4031 16.6411 55.246 15.1408 56.7463C13.6405 58.2466 12.7977 60.2814 12.7977 62.4031V65.6031C12.7977 66.0275 12.6291 66.4344 12.329 66.7345C12.029 67.0346 11.622 67.2031 11.1977 67.2031C10.7733 67.2031 10.3663 67.0346 10.0663 66.7345C9.76623 66.4344 9.59766 66.0275 9.59766 65.6031V62.4031C9.59766 59.4327 10.7777 56.5839 12.8781 54.4835C14.9785 52.3831 17.8272 51.2031 20.7977 51.2031C23.7681 51.2031 26.6168 52.3831 28.7173 54.4835C30.8177 56.5839 31.9977 59.4327 31.9977 62.4031V65.6031C31.9977 66.0275 31.8291 66.4344 31.529 66.7345C31.229 67.0346 30.822 67.2031 30.3977 67.2031Z" fill="url(#paint1_linear_1376_1731)"/>
<path d="M30.4036 65.1539C30.0992 65.1537 29.8013 65.0667 29.5446 64.9031C29.288 64.7395 29.0834 64.5061 28.9547 64.2303C28.826 63.9545 28.7787 63.6478 28.8183 63.346C28.8578 63.0442 28.9826 62.76 29.178 62.5267L51.578 35.7747C51.855 35.4654 52.2414 35.2759 52.6556 35.2463C53.0698 35.2166 53.4793 35.3492 53.7975 35.6159C54.1158 35.8827 54.3179 36.2627 54.3611 36.6757C54.4043 37.0886 54.2853 37.5023 54.0292 37.8291L31.6292 64.5811C31.4791 64.7603 31.2916 64.9044 31.0799 65.0034C30.8681 65.1024 30.6373 65.1537 30.4036 65.1539Z" fill="url(#paint2_linear_1376_1731)"/>
<path d="M17.5961 28.8008C17.1717 28.8008 16.7648 28.6322 16.4647 28.3322C16.1647 28.0321 15.9961 27.6251 15.9961 27.2008V14.4008C15.9961 13.9764 16.1647 13.5695 16.4647 13.2694C16.7648 12.9694 17.1717 12.8008 17.5961 12.8008C18.0204 12.8008 18.4274 12.9694 18.7275 13.2694C19.0275 13.5695 19.1961 13.9764 19.1961 14.4008V27.2008C19.1961 27.6251 19.0275 28.0321 18.7275 28.3322C18.4274 28.6322 18.0204 28.8008 17.5961 28.8008Z" fill="url(#paint3_linear_1376_1731)"/>
<path d="M68.8008 16.0008H14.4008C13.9764 16.0008 13.5695 15.8322 13.2694 15.5322C12.9694 15.2321 12.8008 14.8251 12.8008 14.4008C12.8008 13.9764 12.9694 13.5695 13.2694 13.2694C13.5695 12.9694 13.9764 12.8008 14.4008 12.8008H68.8008C69.2251 12.8008 69.6321 12.9694 69.9321 13.2694C70.2322 13.5695 70.4008 13.9764 70.4008 14.4008C70.4008 14.8251 70.2322 15.2321 69.9321 15.5322C69.6321 15.8322 69.2251 16.0008 68.8008 16.0008Z" fill="url(#paint4_linear_1376_1731)"/>
<path d="M65.6 51.2008C65.1757 51.2008 64.7687 51.0322 64.4686 50.7322C64.1686 50.4321 64 50.0251 64 49.6008V14.4008C64 13.9764 64.1686 13.5695 64.4686 13.2694C64.7687 12.9694 65.1757 12.8008 65.6 12.8008C66.0243 12.8008 66.4313 12.9694 66.7314 13.2694C67.0314 13.5695 67.2 13.9764 67.2 14.4008V49.6008C67.2 50.0251 67.0314 50.4321 66.7314 50.7322C66.4313 51.0322 66.0243 51.2008 65.6 51.2008Z" fill="url(#paint5_linear_1376_1731)"/>
<path d="M68.8039 51.2H49.6039C49.1796 51.2 48.7726 51.0314 48.4725 50.7314C48.1725 50.4313 48.0039 50.0243 48.0039 49.6C48.0039 49.1757 48.1725 48.7687 48.4725 48.4686C48.7726 48.1686 49.1796 48 49.6039 48H68.8039C69.2283 48 69.6352 48.1686 69.9353 48.4686C70.2353 48.7687 70.4039 49.1757 70.4039 49.6C70.4039 50.0243 70.2353 50.4313 69.9353 50.7314C69.6352 51.0314 69.2283 51.2 68.8039 51.2Z" fill="url(#paint6_linear_1376_1731)"/>
<path d="M56.007 25.6023H36.807C36.3827 25.6023 35.9757 25.4338 35.6757 25.1337C35.3756 24.8337 35.207 24.4267 35.207 24.0023C35.207 23.578 35.3756 23.171 35.6757 22.871C35.9757 22.5709 36.3827 22.4023 36.807 22.4023H56.007C56.4314 22.4023 56.8383 22.5709 57.1384 22.871C57.4385 23.171 57.607 23.578 57.607 24.0023C57.607 24.4267 57.4385 24.8337 57.1384 25.1337C56.8383 25.4338 56.4314 25.6023 56.007 25.6023Z" fill="url(#paint7_linear_1376_1731)"/>
<path d="M55.993 32.0008H30.393C29.9686 32.0008 29.5617 31.8322 29.2616 31.5322C28.9615 31.2321 28.793 30.8251 28.793 30.4008C28.793 29.9764 28.9615 29.5695 29.2616 29.2694C29.5617 28.9694 29.9686 28.8008 30.393 28.8008H55.993C56.4173 28.8008 56.8243 28.9694 57.1243 29.2694C57.4244 29.5695 57.593 29.9764 57.593 30.4008C57.593 30.8251 57.4244 31.2321 57.1243 31.5322C56.8243 31.8322 56.4173 32.0008 55.993 32.0008Z" fill="url(#paint8_linear_1376_1731)"/>
<defs>
<linearGradient id="paint0_linear_1376_1731" x1="29.0048" y1="40.1977" x2="12.6016" y2="40.1977" gradientUnits="userSpaceOnUse">
<stop stop-color="#755797"/>
<stop offset="1" stop-color="#9B4DF0"/>
</linearGradient>
<linearGradient id="paint1_linear_1376_1731" x1="31.9977" y1="59.2031" x2="9.59766" y2="59.2031" gradientUnits="userSpaceOnUse">
<stop stop-color="#755797"/>
<stop offset="1" stop-color="#9B4DF0"/>
</linearGradient>
<linearGradient id="paint2_linear_1376_1731" x1="54.3698" y1="50.198" x2="28.8047" y2="50.198" gradientUnits="userSpaceOnUse">
<stop stop-color="#755797"/>
<stop offset="1" stop-color="#9B4DF0"/>
</linearGradient>
<linearGradient id="paint3_linear_1376_1731" x1="19.1961" y1="20.8008" x2="15.9961" y2="20.8008" gradientUnits="userSpaceOnUse">
<stop stop-color="#755797"/>
<stop offset="1" stop-color="#9B4DF0"/>
</linearGradient>
<linearGradient id="paint4_linear_1376_1731" x1="70.4008" y1="14.4008" x2="12.8008" y2="14.4008" gradientUnits="userSpaceOnUse">
<stop stop-color="#755797"/>
<stop offset="1" stop-color="#9B4DF0"/>
</linearGradient>
<linearGradient id="paint5_linear_1376_1731" x1="67.2" y1="32.0008" x2="64" y2="32.0008" gradientUnits="userSpaceOnUse">
<stop stop-color="#755797"/>
<stop offset="1" stop-color="#9B4DF0"/>
</linearGradient>
<linearGradient id="paint6_linear_1376_1731" x1="70.4039" y1="49.6" x2="48.0039" y2="49.6" gradientUnits="userSpaceOnUse">
<stop stop-color="#755797"/>
<stop offset="1" stop-color="#9B4DF0"/>
</linearGradient>
<linearGradient id="paint7_linear_1376_1731" x1="57.607" y1="24.0023" x2="35.207" y2="24.0023" gradientUnits="userSpaceOnUse">
<stop stop-color="#755797"/>
<stop offset="1" stop-color="#9B4DF0"/>
</linearGradient>
<linearGradient id="paint8_linear_1376_1731" x1="57.593" y1="30.4008" x2="28.793" y2="30.4008" gradientUnits="userSpaceOnUse">
<stop stop-color="#755797"/>
<stop offset="1" stop-color="#9B4DF0"/>
</linearGradient>
</defs>
</svg>
