<svg width="80" height="80" viewBox="0 0 80 80" fill="none" xmlns="http://www.w3.org/2000/svg">
<g clip-path="url(#clip0_1376_1720)">
<path d="M78.3254 35.8781L72.8707 30.2303C72.4496 29.7958 72.2488 29.1795 72.3338 28.5808L73.429 20.8083C73.879 17.6213 71.7466 14.6911 68.579 14.1367L60.8471 12.7808C60.2502 12.6764 59.7249 12.2941 59.4429 11.757L55.7691 4.82673C54.2605 1.9797 50.8109 0.859383 47.9174 2.27704L40.8693 5.72673C40.3246 5.99329 39.6755 5.99329 39.1309 5.72673L32.0827 2.27704C29.1874 0.859227 25.7415 1.97954 24.231 4.82673L20.5573 11.757C20.2713 12.3017 19.7576 12.6727 19.153 12.7808L11.423 14.1367C8.25336 14.6891 6.12289 17.6213 6.57289 20.8063L7.66617 28.5806C7.75117 29.1872 7.55805 29.7897 7.1293 30.2302L1.67461 35.878C-0.558203 38.1881 -0.558203 41.8116 1.67461 44.1217L7.1293 49.7695C7.55039 50.2041 7.75117 50.8203 7.66617 51.4191L6.57102 59.1916C6.12102 62.3786 8.25336 65.3088 11.421 65.8631L19.1529 67.2191C19.7498 67.3234 20.2751 67.7058 20.5571 68.2428L24.2309 75.1731C25.7413 78.0202 29.1891 79.1405 32.0826 77.7228L39.1307 74.2731C39.6754 74.0066 40.3245 74.0066 40.8691 74.2731L47.9173 77.7228C48.7652 78.1381 49.6595 78.3352 50.5402 78.3352C52.6649 78.3352 54.7027 77.1859 55.7688 75.1733L59.4426 68.243C59.7285 67.6983 60.2423 67.3275 60.8468 67.2192L68.5768 65.8633C71.7465 65.3109 73.877 62.3788 73.4268 59.1938L72.3335 51.4194C72.2485 50.8128 72.4416 50.2103 72.8704 49.7699L78.3251 44.122C80.5584 41.8117 80.5584 38.1883 78.3254 35.8781ZM75.4802 41.3752L70.0255 47.0191C68.7449 48.3441 68.1598 50.1481 68.4166 51.9716L69.5099 59.7441C69.6605 60.8064 68.9498 61.7838 67.8952 61.9692L60.1613 63.3252C58.3457 63.6439 56.8101 64.7622 55.9468 66.3905L52.273 73.3189C51.7709 74.2692 50.6235 74.6439 49.6559 74.1708L42.6077 70.7191C41.7926 70.3213 40.8963 70.1203 40.0002 70.1203C39.1041 70.1203 38.2077 70.3213 37.3927 70.7209L30.3446 74.1688C29.3807 74.6439 28.2296 74.2692 27.7274 73.3189L24.0537 66.3886C23.1902 64.7584 21.6527 63.642 19.8352 63.3252L12.1052 61.9674C11.0507 61.7819 10.3398 60.8066 10.4885 59.7441L11.5837 51.9716C11.8405 50.1481 11.2552 48.3442 9.97664 47.0211L4.52008 41.3752C3.77648 40.6025 3.77648 39.3974 4.52008 38.6247L9.97477 32.9808C11.2554 31.6558 11.8405 29.8517 11.5837 28.0283L10.4904 20.2558C10.3398 19.1934 11.0505 18.2161 12.1051 18.0306L19.839 16.6747C21.6546 16.3559 23.1902 15.2377 24.0535 13.6094L27.7273 6.68095C28.2295 5.73063 29.3807 5.35985 30.3445 5.82907L37.3926 9.28079C39.0227 10.0766 40.9774 10.0784 42.6077 9.27891L49.6559 5.83126C50.6216 5.3561 51.7709 5.73079 52.273 6.6811L55.9468 13.6114C56.8102 15.2416 58.3477 16.3581 60.1652 16.6749L67.8952 18.0327C68.9498 18.2181 69.6607 19.1934 69.512 20.2559L68.4168 28.0284C68.1599 29.8519 68.7452 31.6558 70.0238 32.9789L75.4804 38.6247C76.224 39.3974 76.224 40.6027 75.4802 41.3752Z" fill="url(#paint0_linear_1376_1720)"/>
<path d="M53.2634 26.7357C52.4907 25.9631 51.2392 25.9631 50.4665 26.7357L26.7318 50.4704C25.9592 51.2431 25.9592 52.4946 26.7318 53.2673C27.1181 53.6536 27.6242 53.8468 28.1303 53.8468C28.6364 53.8468 29.1425 53.6537 29.5287 53.2673L53.2634 29.5326C54.0359 28.76 54.0359 27.5084 53.2634 26.7357Z" fill="url(#paint1_linear_1376_1720)"/>
<path d="M38.0341 30.1147C38.0341 25.7494 34.4839 22.1992 30.1186 22.1992C25.7533 22.1992 22.2031 25.7494 22.2031 30.1147C22.2031 34.48 25.7533 38.0302 30.1186 38.0302C34.4839 38.0302 38.0341 34.48 38.0341 30.1147ZM26.1591 30.1147C26.1591 27.932 27.9361 26.155 30.1188 26.155C32.3014 26.155 34.0784 27.932 34.0784 30.1147C34.0784 32.2973 32.3014 34.0744 30.1188 34.0744C27.9359 34.0744 26.1591 32.2973 26.1591 30.1147Z" fill="url(#paint2_linear_1376_1720)"/>
<path d="M49.8881 41.9688C45.5228 41.9688 41.9727 45.5189 41.9727 49.8842C41.9727 54.2495 45.5228 57.7997 49.8881 57.7997C54.2534 57.7997 57.8036 54.2495 57.8036 49.8842C57.8036 45.5189 54.2534 41.9688 49.8881 41.9688ZM49.8881 53.8437C47.7055 53.8437 45.9284 52.0667 45.9284 49.8841C45.9284 47.7014 47.7055 45.9244 49.8881 45.9244C52.0708 45.9244 53.8478 47.7014 53.8478 49.8841C53.8478 52.0667 52.0708 53.8437 49.8881 53.8437Z" fill="url(#paint3_linear_1376_1720)"/>
</g>
<defs>
<linearGradient id="paint0_linear_1376_1720" x1="80.0001" y1="39.9999" x2="0" y2="39.9999" gradientUnits="userSpaceOnUse">
<stop stop-color="#755797"/>
<stop offset="1" stop-color="#9B4DF0"/>
</linearGradient>
<linearGradient id="paint1_linear_1376_1720" x1="53.8428" y1="40.0015" x2="26.1523" y2="40.0015" gradientUnits="userSpaceOnUse">
<stop stop-color="#755797"/>
<stop offset="1" stop-color="#9B4DF0"/>
</linearGradient>
<linearGradient id="paint2_linear_1376_1720" x1="38.0341" y1="30.1147" x2="22.2031" y2="30.1147" gradientUnits="userSpaceOnUse">
<stop stop-color="#755797"/>
<stop offset="1" stop-color="#9B4DF0"/>
</linearGradient>
<linearGradient id="paint3_linear_1376_1720" x1="57.8036" y1="49.8842" x2="41.9727" y2="49.8842" gradientUnits="userSpaceOnUse">
<stop stop-color="#755797"/>
<stop offset="1" stop-color="#9B4DF0"/>
</linearGradient>
<clipPath id="clip0_1376_1720">
<rect width="80" height="80" fill="white"/>
</clipPath>
</defs>
</svg>
