<svg width="80" height="80" viewBox="0 0 80 80" fill="none" xmlns="http://www.w3.org/2000/svg">
<path d="M68.7541 74.4659C65.1899 56.5689 65.3439 57.331 65.3264 57.2574C64.8591 54.9952 63.545 53.1169 61.4147 51.9402C60.4183 51.3885 59.8438 51.3025 59.3414 51.1385L50.5851 48.0971L47.6668 46.0955V43.8252C51.9343 41.2901 54.6511 36.924 55.1479 32.1993C58.7139 32.3646 61.1994 28.9562 59.7043 25.9721V16.419C59.7043 9.5106 55.9471 7.10717 54.7991 6.53435C49.1824 -0.170788 38.6941 -1.89047 30.7432 2.18936L30.7279 2.19702C30.5915 2.27718 28.9529 3.0353 26.9351 4.72248C26.4456 5.14592 26.392 5.88592 26.8152 6.37545C27.2393 6.8656 27.9795 6.91795 28.4682 6.49529C36.2551 -0.0431328 47.8129 1.63702 53.156 8.22529C53.2875 8.38732 53.4477 8.50685 53.6432 8.57998C53.795 8.64091 57.3607 10.1415 57.3607 16.419V23.8149C56.7105 23.5396 55.9977 23.3985 55.238 23.4198V19.5868C55.238 18.6145 54.5055 17.8109 53.5343 17.7171C51.5649 17.527 50.4615 16.2439 49.8824 15.2012C49.1577 13.8961 47.4277 13.5834 46.2933 14.5528C41.0682 19.0192 35.052 19.246 30.9251 18.6509C27.8077 18.2009 24.9084 20.3242 24.4038 23.4214C23.6451 23.3885 22.8954 23.5229 22.2062 23.8148C22.2107 19.7803 21.7453 15.3906 25.0449 10.3604C25.399 9.81857 25.2467 9.09247 24.7048 8.73841C24.1631 8.38419 23.4368 8.53623 23.0828 9.07841C18.5921 15.9593 20.1989 22.125 19.8623 25.972C18.3679 28.9549 20.8501 32.3646 24.4185 32.199C25.001 37.7635 28.4288 40.9646 28.5102 41.104L28.5104 41.1041C29.1188 41.6874 30.2115 42.9058 32.3413 44.0798V46.0951L29.4234 48.0965C18.0032 52.0635 19.1623 51.5821 18.2345 52.149C16.4809 53.2291 15.2654 54.8811 14.7589 56.9152C14.659 57.3172 14.8248 56.5575 11.254 74.4655C11.1822 74.8272 11.1443 75.5323 11.2089 76.1303C11.4736 78.5895 13.2176 79.9998 15.9939 79.9998H48.1944C48.8418 79.9998 49.3663 79.4753 49.3663 78.828C49.3663 78.1806 48.8418 77.6561 48.1944 77.6561H24.2348V66.9189C24.2348 66.2716 23.7101 65.7471 23.0629 65.7471C22.4157 65.7471 21.891 66.2716 21.891 66.9189V77.6562H15.9935C14.1562 77.6562 13.2934 76.8681 13.5593 74.8895C16.766 59.2202 16.7729 57.9558 17.2975 56.6719C17.3889 56.5439 17.8942 54.7358 20.3717 53.6841C20.6278 53.5791 20.4681 53.6494 21.349 53.381C21.4034 53.3654 21.1348 53.4566 25.3434 51.9954L28.1504 57.1772C28.4587 57.7463 29.1696 57.958 29.739 57.6494C30.3081 57.3411 30.5195 56.6299 30.2112 56.0608L27.5868 51.216L29.3815 50.5925C30.2466 52.1897 37.9068 66.3299 38.7394 67.8667C39.2534 68.8186 40.5618 68.8661 41.1646 68.0349C41.2738 67.8844 40.6499 69.0044 50.6116 50.5872L52.406 51.2105L42.9193 68.7588C41.6687 71.072 38.3438 71.0722 37.0916 68.7613L32.8162 60.8688C32.5077 60.2997 31.7968 60.0878 31.2276 60.3966C30.6585 60.705 30.4471 61.4161 30.7554 61.9852L35.031 69.8778C37.1696 73.8249 42.8468 73.8213 44.981 69.8735L54.649 51.9897C58.8482 53.4477 58.6019 53.3644 58.6563 53.38C59.4824 53.6318 59.3905 53.5833 59.6338 53.6829C60.5299 54.0646 61.0647 54.505 61.0491 54.4935C61.968 55.2346 62.6016 56.0908 62.94 57.3516C62.9955 57.5516 66.4744 74.8003 66.4886 75.3823C66.5235 76.8536 65.8881 77.6562 64.015 77.6562H58.1171V66.9189C58.1171 66.2716 57.5925 65.7471 56.9452 65.7471C56.2979 65.7471 55.7733 66.2716 55.7733 66.9189V77.6562H53.6625C53.0152 77.6562 52.4907 78.1808 52.4907 78.8281C52.4907 79.4755 53.0152 80 53.6625 80H64.0146C66.7908 80 68.5347 78.5897 68.7991 76.1319C68.863 75.5455 68.8255 74.8253 68.7541 74.4659ZM55.2379 25.7643C56.5893 25.6929 57.7988 26.6032 57.7988 27.8107C57.7988 29.0303 56.5761 29.9281 55.2379 29.8573V25.7643ZM24.3288 29.8573C22.9776 29.9288 21.7679 29.0184 21.7679 27.8109C21.7679 26.5913 22.9906 25.6935 24.3288 25.7643V29.8573ZM30.5901 20.9706C35.1965 21.6354 41.9241 21.3709 47.8158 16.3343L47.8332 16.3389C48.9651 18.3771 50.751 19.6639 52.8941 19.9976V24.1474L51.5569 24.9367C51.0063 24.1432 50.0901 23.6217 49.0535 23.6217H43.6908C42.426 23.6217 41.3394 24.3968 40.8793 25.4967H38.6874C38.2273 24.3968 37.1405 23.6217 35.8757 23.6217H30.5131C29.4763 23.6217 28.5599 24.1432 28.0096 24.9367L26.6785 24.1509C26.7938 22.1476 28.6048 20.6834 30.5901 20.9706ZM49.7566 26.6685V29.0023C49.7566 30.0188 48.9296 30.8457 47.913 30.8457H44.831C43.8146 30.8457 42.9876 30.0187 42.9876 29.0023V26.6685H42.9877C42.9877 26.2874 43.3097 25.9654 43.6908 25.9654H49.0535C49.4346 25.9654 49.7566 26.2874 49.7566 26.6685ZM36.5788 26.6685V29.0023C36.5788 30.0188 35.752 30.8457 34.7354 30.8457H31.6534C30.6368 30.8457 29.8099 30.0187 29.8099 29.0023V26.6685C29.8099 26.2874 30.132 25.9654 30.5131 25.9654H35.8757C36.2568 25.9654 36.5788 26.2874 36.5788 26.6685ZM29.8329 39.0698C26.0402 34.6491 26.7713 30.3568 26.6726 26.869L27.4665 27.3376V29.0023C27.4665 31.311 29.3448 33.1895 31.6535 33.1895H34.7355C37.0443 33.1895 38.9226 31.3112 38.9226 29.0023V27.8403H40.6446V29.0023C40.6446 31.311 42.5229 33.1895 44.8316 33.1895H47.9136C50.2224 33.1895 52.1008 31.3112 52.1008 29.0023V27.3376L52.8947 26.869V30.5332C52.8947 37.5032 47.3782 43.5591 39.7838 43.6426C39.768 43.6424 39.6102 43.6413 39.6259 43.6415C37.6001 43.621 36.0434 43.1018 36.2009 43.146C33.9013 42.5082 31.7082 41.1916 29.8329 39.0698ZM40.0041 52.18L34.6851 46.2613V45.1247C37.1312 45.9743 39.6679 46.1696 42.0299 45.8252C42.689 45.7294 43.3983 45.5724 43.8133 45.4552C43.9119 45.4232 44.4777 45.2879 45.3232 44.9626V46.2615L40.0041 52.18ZM41.324 56.3563L40.8062 57.4225H39.2023L38.6843 56.3563L40.0041 55.3869L41.324 56.3563ZM36.9159 59.5807L36.1696 58.2032L36.764 57.7668L37.2082 58.6814L36.9159 59.5807ZM35.0509 56.1172L31.4904 49.531L33.3318 48.2612L38.2682 53.7543C37.983 53.9633 35.3309 55.9114 35.0509 56.1172ZM40.0038 65.2806L38.456 62.4235L39.3201 59.7661H40.6888L41.5513 62.4188C41.0607 63.3256 40.6052 64.1682 40.0038 65.2806ZM43.0899 59.5721L42.8002 58.6811L43.2444 57.7664L43.8324 58.1983L43.0899 59.5721ZM44.9577 56.1172C44.6532 55.8936 42.1074 54.0238 41.7405 53.7543L46.6769 48.2612L48.5183 49.531C47.3357 51.7182 45.7251 54.6974 44.9577 56.1172Z" fill="url(#paint0_linear_1376_1675)"/>
<defs>
<linearGradient id="paint0_linear_1376_1675" x1="68.8318" y1="40" x2="11.1758" y2="40" gradientUnits="userSpaceOnUse">
<stop stop-color="#755797"/>
<stop offset="1" stop-color="#9B4DF0"/>
</linearGradient>
</defs>
</svg>
